<svg width="16" height="17" viewBox="0 0 16 17" fill="none" xmlns="http://www.w3.org/2000/svg">
<g id="instagram-brands 1" clip-path="url(#clip0_190_1696)">
<path id="Vector" d="M8.13677 4.68165C6.02163 4.68165 4.31555 6.38497 4.31555 8.49669C4.31555 10.6084 6.02163 12.3117 8.13677 12.3117C10.2519 12.3117 11.958 10.6084 11.958 8.49669C11.958 6.38497 10.2519 4.68165 8.13677 4.68165ZM8.13677 10.977C6.76991 10.977 5.65248 9.86466 5.65248 8.49669C5.65248 7.12872 6.76658 6.01642 8.13677 6.01642C9.50695 6.01642 10.6211 7.12872 10.6211 8.49669C10.6211 9.86466 9.50363 10.977 8.13677 10.977ZM13.0056 4.5256C13.0056 5.02032 12.6065 5.41544 12.1143 5.41544C11.6188 5.41544 11.223 5.017 11.223 4.5256C11.223 4.03419 11.6221 3.63575 12.1143 3.63575C12.6065 3.63575 13.0056 4.03419 13.0056 4.5256ZM15.5364 5.42872C15.4799 4.23673 15.2072 3.18087 14.3325 2.31095C13.4612 1.44103 12.4036 1.16876 11.2097 1.109C9.9792 1.03927 6.29101 1.03927 5.0605 1.109C3.8699 1.16544 2.81233 1.43771 1.93768 2.30763C1.06302 3.17755 0.793639 4.23341 0.733776 5.4254C0.663937 6.65392 0.663937 10.3361 0.733776 11.5647C0.790313 12.7567 1.06302 13.8125 1.93768 14.6824C2.81233 15.5524 3.86658 15.8246 5.0605 15.8844C6.29101 15.9541 9.9792 15.9541 11.2097 15.8844C12.4036 15.8279 13.4612 15.5557 14.3325 14.6824C15.2039 13.8125 15.4766 12.7567 15.5364 11.5647C15.6063 10.3361 15.6063 6.65724 15.5364 5.42872ZM13.9468 12.8828C13.6874 13.5336 13.1852 14.035 12.53 14.2973C11.5489 14.6858 9.22094 14.5961 8.13677 14.5961C7.05259 14.5961 4.72128 14.6824 3.74353 14.2973C3.09169 14.0383 2.58951 13.5369 2.32678 12.8828C1.93768 11.9033 2.02747 9.57911 2.02747 8.49669C2.02747 7.41427 1.941 5.08673 2.32678 4.11056C2.58619 3.45978 3.08837 2.95841 3.74353 2.69611C4.72461 2.30763 7.05259 2.39728 8.13677 2.39728C9.22094 2.39728 11.5523 2.31095 12.53 2.69611C13.1818 2.95509 13.684 3.45646 13.9468 4.11056C14.3359 5.09005 14.2461 7.41427 14.2461 8.49669C14.2461 9.57911 14.3359 11.9067 13.9468 12.8828Z" fill="white"/>
</g>
<defs>
<clipPath id="clip0_190_1696">
<rect width="14.8991" height="17" fill="white" transform="translate(0.68396)"/>
</clipPath>
</defs>
</svg>
